<svg id="Layer_1" data-name="Layer 1" xmlns="http://www.w3.org/2000/svg" viewBox="0 0 292.09 464.75"><defs><style>.cls-1{fill:#f8f8fd;}.cls-2{fill:#ccccf5;}.cls-3{fill:#e9ebfd;}</style></defs><path class="cls-1" d="M-39.13,10.67,114.61-50.09V115.57L-38.87,250.05Z" transform="translate(175.48 53.04)"/><path class="cls-2" d="M-41.13,9.31-41,127.39v4.24l.13,122.83L112.61,120l2-1.75,1.32-1.16.68-.59V-53ZM112.61,114.66l-149.49,131L-37,130.21V126L-37.13,12,112.61-47.15Z" transform="translate(175.48 53.04)"/><polygon class="cls-3" points="290.09 127.27 290.09 464.75 0 464.75 0 230.31 134.48 182.55 136.48 181.84 138.47 181.13 288.09 127.98 290.09 127.27"/><path class="cls-2" d="M114.61,72.11l-2,.71L-37,126l-2,.71-2,.71-134.48,47.77v4.24L-41,131.63l2-.72,2-.7L112.61,77.06V411.71h4V71.4Z" transform="translate(175.48 53.04)"/></svg>